<svg xmlns="http://www.w3.org/2000/svg" width="1800" height="900" zoomAndPan="disable"><style/><path d="M900 0v900M0 0l900 900M100 0l800 800M200 0l700 700M300 0l600 600M400 0l500 500M300 900l300-300M400 900l300-300M500 900l300-300M600 900l300-300M700 900l200-200M800 900l100-100M1800 0L900 900M1700 0L900 800M1600 0L900 700M1500 0L900 600M1400 0L900 500m600 400l-300-300m200 300l-300-300m200 300l-300-300m200 300L900 600m200 300L900 700m100 200L900 800M300 900l300-300 50 50 50-50 50 50 50-50 50 50 50-50v300-300l50 50 50-50 50 50 50-50 50 50 50-50 300 300z"/><path d="M350 950l300-300 50 50 50-50 50 50 50-50 50 50v200-200l50-50 50 50 50-50 50 50 50-50 300 300z"/><path d="M400 1000l300-300 50 50 50-50 50 50 50-50v200-200l50 50 50-50 50 50 50-50 200 200z"/><path d="M450 1050l300-300 50 50 50-50 50 50v100-100l50-50 50 50 50-50 300 300z"/><path d="M500 1100l300-300 50 50 50-50v100-100l50 50 50-50 300 300z"/><path d="M550 1150l300-300 50 50 50-50 300 300z"/></svg>